# xmcd
# 
# Track frame offsets:
#     150
#     21612
#     38457
#     62145
#     82545
#     102517
#     121562
#     137362
#     165645
#     190317
#     209022
#     234345
#     254695
#     271700
#     289327
# 
# Disc length: 4200
# 
# Revision: 1
# Processed by: cddbd v1.5.2PL0 Copyright (c) Steve Scherf et al.
# Submitted via: fre:ac v1.0.17
# 
DISCID=cc10660f
DTITLE=Various Artists 90's - 青春歌年鑑 90年代 総集編 Disc2
DYEAR=2004
DGENRE=JPop
TTITLE0=GOING GOING HOME - H Jungle With T
TTITLE1=ガッツだぜ!! - ウルフルズ
TTITLE2=DEPARTURES - globe
TTITLE3=I'm proud - 華原朋美
TTITLE4=Baby baby baby - dos
TTITLE5=BREAK OUT - 相川七瀬
TTITLE6=ありがとう - 井上陽水奥田民生
TTITLE7=CAN YOU CELEBRATE? - 安室奈美恵
TTITLE8=Give me a Shake - MAX
TTITLE9=ひだまりの詩 - Le Couple
TTITLE10=White Love - SPEED
TTITLE11=Rhapsody in Blue - DA PUMP
TTITLE12=HONEY - L'Arc-en-Ciel
TTITLE13=Boys and Girls - 浜崎あゆみ
TTITLE14=あなたのキスを教えましょう-You were mine- - 小柳ゆき
EXTD=YEAR: 2004
EXTT0=
EXTT1=
EXTT2=
EXTT3=
EXTT4=
EXTT5=
EXTT6=
EXTT7=
EXTT8=
EXTT9=
EXTT10=
EXTT11=
EXTT12=
EXTT13=
EXTT14=
PLAYORDER=
